<svg width="128" height="128" viewBox="0 0 128 128" fill="none" xmlns="http://www.w3.org/2000/svg">
<rect width="128" height="128" fill="#EF4E22"/>
<rect x="28" y="16" width="72" height="8" fill="white"/>
<rect x="68" y="16" width="36" height="8" transform="rotate(90 68 16)" fill="white"/>
<rect x="68" y="84" width="28" height="8" transform="rotate(90 68 84)" fill="white"/>
<path d="M64.0789 76.216C62.9589 76.216 61.9749 76 61.1269 75.568C60.2789 75.12 59.6149 74.496 59.1349 73.696C58.6709 72.88 58.4389 71.944 58.4389 70.888V64.288C58.4389 63.248 58.6709 62.328 59.1349 61.528C59.6149 60.728 60.2789 60.112 61.1269 59.68C61.9749 59.232 62.9589 59.008 64.0789 59.008C65.1989 59.008 66.1829 59.224 67.0309 59.656C67.8789 60.088 68.5349 60.696 68.9989 61.48C69.4789 62.264 69.7189 63.168 69.7189 64.192C69.7189 64.272 69.6949 64.336 69.6469 64.384C69.5989 64.432 69.5429 64.456 69.4789 64.456L68.2549 64.528C68.0949 64.528 68.0149 64.456 68.0149 64.312V64.24C68.0149 63.104 67.6549 62.2 66.9349 61.528C66.2149 60.84 65.2629 60.496 64.0789 60.496C62.8949 60.496 61.9429 60.84 61.2229 61.528C60.5029 62.216 60.1429 63.12 60.1429 64.24V70.96C60.1429 72.08 60.5029 72.984 61.2229 73.672C61.9429 74.36 62.8949 74.704 64.0789 74.704C65.2629 74.704 66.2149 74.368 66.9349 73.696C67.6549 73.008 68.0149 72.096 68.0149 70.96V70.912C68.0149 70.768 68.0949 70.696 68.2549 70.696L69.4789 70.768C69.6389 70.768 69.7189 70.84 69.7189 70.984C69.7189 72.024 69.4789 72.944 68.9989 73.744C68.5349 74.528 67.8789 75.136 67.0309 75.568C66.1829 76 65.1989 76.216 64.0789 76.216Z" fill="white"/>
</svg>
